<svg aria-hidden="true" style="position: absolute; width: 0; height: 0; overflow: hidden;" version="1.1" xmlns="http://www.w3.org/2000/svg" xmlns:xlink="http://www.w3.org/1999/xlink">
<defs>
<symbol id="icon-logo" viewBox="0 0 105 32">
<path fill="#cf6f49" style="fill: var(--color1, #cf6f49)" d="M20 0h-8c-6.627 0-12 5.373-12 12v8c0 6.627 5.373 12 12 12h8c6.627 0 12-5.373 12-12v-8c0-6.627-5.373-12-12-12z"></path>
<path fill="#2a2c1f" style="fill: var(--color2, #2a2c1f)" d="M41.36 23v-14h5.14c1.12 0 2.040 0.193 2.76 0.58 0.733 0.373 1.28 0.887 1.64 1.54 0.36 0.64 0.54 1.353 0.54 2.14 0 0.853-0.227 1.633-0.68 2.34-0.44 0.707-1.133 1.22-2.080 1.54l2.9 5.86h-2.94l-2.6-5.52h-2.12v5.52h-2.56zM43.92 15.6h2.42c0.853 0 1.48-0.207 1.88-0.62s0.6-0.96 0.6-1.64c0-0.667-0.2-1.2-0.6-1.6-0.387-0.4-1.020-0.6-1.9-0.6h-2.4v4.46zM57.975 23.24c-1 0-1.887-0.213-2.66-0.64s-1.38-1.027-1.82-1.8-0.66-1.667-0.66-2.68c0-1.027 0.213-1.94 0.64-2.74 0.44-0.8 1.040-1.42 1.8-1.86 0.773-0.453 1.68-0.68 2.72-0.68 0.973 0 1.833 0.213 2.58 0.64s1.327 1.013 1.74 1.76c0.427 0.733 0.64 1.553 0.64 2.46 0 0.147-0.007 0.3-0.020 0.46 0 0.16-0.007 0.327-0.020 0.5h-7.54c0.053 0.773 0.32 1.38 0.8 1.82 0.493 0.44 1.087 0.66 1.78 0.66 0.52 0 0.953-0.113 1.3-0.34 0.36-0.24 0.627-0.547 0.8-0.92h2.6c-0.187 0.627-0.5 1.2-0.94 1.72-0.427 0.507-0.96 0.907-1.6 1.2-0.627 0.293-1.34 0.44-2.14 0.44zM57.995 14.92c-0.627 0-1.18 0.18-1.66 0.54-0.48 0.347-0.787 0.88-0.92 1.6h4.94c-0.040-0.653-0.28-1.173-0.72-1.56s-0.987-0.58-1.64-0.58zM68.529 23.24c-0.853 0-1.553-0.133-2.1-0.4-0.547-0.28-0.953-0.647-1.22-1.1s-0.4-0.953-0.4-1.5c0-0.92 0.36-1.667 1.080-2.24s1.8-0.86 3.24-0.86h2.52v-0.24c0-0.68-0.193-1.18-0.58-1.5s-0.867-0.48-1.44-0.48c-0.52 0-0.973 0.127-1.36 0.38-0.387 0.24-0.627 0.6-0.72 1.080h-2.5c0.067-0.72 0.307-1.347 0.72-1.88 0.427-0.533 0.973-0.94 1.64-1.22 0.667-0.293 1.413-0.44 2.24-0.44 1.413 0 2.527 0.353 3.34 1.060s1.22 1.707 1.22 3v6.1h-2.18l-0.24-1.6c-0.293 0.533-0.707 0.973-1.24 1.32-0.52 0.347-1.193 0.52-2.020 0.52zM69.109 21.24c0.733 0 1.3-0.24 1.7-0.72 0.413-0.48 0.673-1.073 0.78-1.78h-2.18c-0.68 0-1.167 0.127-1.46 0.38-0.293 0.24-0.44 0.54-0.44 0.9 0 0.387 0.147 0.687 0.44 0.9s0.68 0.32 1.16 0.32zM76.652 23v-14.4h2.56v14.4h-2.56zM86.687 23.24c-1.013 0-1.907-0.22-2.68-0.66s-1.387-1.053-1.84-1.84c-0.44-0.787-0.66-1.687-0.66-2.7s0.22-1.913 0.66-2.7c0.453-0.787 1.067-1.4 1.84-1.84s1.667-0.66 2.68-0.66c1.267 0 2.333 0.333 3.2 1 0.867 0.653 1.42 1.56 1.66 2.72h-2.7c-0.133-0.48-0.4-0.853-0.8-1.12-0.387-0.28-0.847-0.42-1.38-0.42-0.707 0-1.307 0.267-1.8 0.8s-0.74 1.273-0.74 2.22 0.247 1.687 0.74 2.22c0.493 0.533 1.093 0.8 1.8 0.8 0.533 0 0.993-0.133 1.38-0.4 0.4-0.267 0.667-0.647 0.8-1.14h2.7c-0.24 1.12-0.793 2.020-1.66 2.7s-1.933 1.020-3.2 1.020zM98.579 23.24c-0.96 0-1.827-0.22-2.6-0.66-0.76-0.44-1.367-1.047-1.82-1.82-0.44-0.787-0.66-1.693-0.66-2.72s0.227-1.927 0.68-2.7c0.453-0.787 1.060-1.4 1.82-1.84 0.773-0.44 1.64-0.66 2.6-0.66 0.947 0 1.8 0.22 2.561 0.66 0.773 0.44 1.38 1.053 1.82 1.84 0.453 0.773 0.68 1.673 0.68 2.7s-0.227 1.933-0.68 2.72c-0.44 0.773-1.047 1.38-1.82 1.82-0.774 0.44-1.634 0.66-2.581 0.66zM98.579 21.020c0.667 0 1.247-0.247 1.74-0.74 0.493-0.507 0.74-1.253 0.74-2.24s-0.247-1.727-0.74-2.22c-0.494-0.507-1.067-0.76-1.721-0.76-0.68 0-1.267 0.253-1.76 0.76-0.48 0.493-0.72 1.233-0.72 2.22s0.24 1.733 0.72 2.24c0.493 0.493 1.073 0.74 1.74 0.74z"></path>
</symbol>
<symbol id="icon-close" viewBox="0 0 32 32">
<path d="M8 7c-0.256 0-0.512 0.097-0.707 0.293-0.391 0.391-0.391 1.024 0 1.414l7.293 7.293-7.293 7.293c-0.391 0.39-0.391 1.024 0 1.414 0.196 0.195 0.451 0.293 0.707 0.293s0.512-0.097 0.707-0.293l7.293-7.293 7.293 7.293c0.39 0.39 1.024 0.39 1.414 0s0.39-1.024 0-1.414l-7.293-7.293 7.293-7.293c0.39-0.39 0.39-1.024 0-1.414s-1.024-0.391-1.414 0l-7.293 7.293-7.293-7.293c-0.195-0.196-0.451-0.293-0.707-0.293z"></path>
</symbol>
</defs>
</svg>