<svg aria-hidden="true" style="position: absolute; width: 0; height: 0; overflow: hidden;" version="1.1" xmlns="http://www.w3.org/2000/svg" xmlns:xlink="http://www.w3.org/1999/xlink">
<defs>
<symbol id="icon-logo" viewBox="0 0 105 32">
<path fill="#cf6f49" style="fill: var(--color1, #cf6f49)" d="M20 0h-8c-6.627 0-12 5.373-12 12v8c0 6.627 5.373 12 12 12h8c6.627 0 12-5.373 12-12v-8c0-6.627-5.373-12-12-12z"></path>
<path fill="#2a2c1f" style="fill: var(--color2, #2a2c1f)" d="M41.36 23v-14h5.14c1.12 0 2.040 0.193 2.76 0.58 0.733 0.373 1.28 0.887 1.64 1.54 0.36 0.64 0.54 1.353 0.54 2.14 0 0.853-0.227 1.633-0.68 2.34-0.44 0.707-1.133 1.22-2.080 1.54l2.9 5.86h-2.94l-2.6-5.52h-2.12v5.52h-2.56zM43.92 15.6h2.42c0.853 0 1.48-0.207 1.88-0.62s0.6-0.96 0.6-1.64c0-0.667-0.2-1.2-0.6-1.6-0.387-0.4-1.020-0.6-1.9-0.6h-2.4v4.46zM57.975 23.24c-1 0-1.887-0.213-2.66-0.64s-1.38-1.027-1.82-1.8-0.66-1.667-0.66-2.68c0-1.027 0.213-1.94 0.64-2.74 0.44-0.8 1.040-1.42 1.8-1.86 0.773-0.453 1.68-0.68 2.72-0.68 0.973 0 1.833 0.213 2.58 0.64s1.327 1.013 1.74 1.76c0.427 0.733 0.64 1.553 0.64 2.46 0 0.147-0.007 0.3-0.020 0.46 0 0.16-0.007 0.327-0.020 0.5h-7.54c0.053 0.773 0.32 1.38 0.8 1.82 0.493 0.44 1.087 0.66 1.78 0.66 0.52 0 0.953-0.113 1.3-0.34 0.36-0.24 0.627-0.547 0.8-0.92h2.6c-0.187 0.627-0.5 1.2-0.94 1.72-0.427 0.507-0.96 0.907-1.6 1.2-0.627 0.293-1.34 0.44-2.14 0.44zM57.995 14.92c-0.627 0-1.18 0.18-1.66 0.54-0.48 0.347-0.787 0.88-0.92 1.6h4.94c-0.040-0.653-0.28-1.173-0.72-1.56s-0.987-0.58-1.64-0.58zM68.529 23.24c-0.853 0-1.553-0.133-2.1-0.4-0.547-0.28-0.953-0.647-1.22-1.1s-0.4-0.953-0.4-1.5c0-0.92 0.36-1.667 1.080-2.24s1.8-0.86 3.24-0.86h2.52v-0.24c0-0.68-0.193-1.18-0.58-1.5s-0.867-0.48-1.44-0.48c-0.52 0-0.973 0.127-1.36 0.38-0.387 0.24-0.627 0.6-0.72 1.080h-2.5c0.067-0.72 0.307-1.347 0.72-1.88 0.427-0.533 0.973-0.94 1.64-1.22 0.667-0.293 1.413-0.44 2.24-0.44 1.413 0 2.527 0.353 3.34 1.060s1.22 1.707 1.22 3v6.1h-2.18l-0.24-1.6c-0.293 0.533-0.707 0.973-1.24 1.32-0.52 0.347-1.193 0.52-2.020 0.52zM69.109 21.24c0.733 0 1.3-0.24 1.7-0.72 0.413-0.48 0.673-1.073 0.78-1.78h-2.18c-0.68 0-1.167 0.127-1.46 0.38-0.293 0.24-0.44 0.54-0.44 0.9 0 0.387 0.147 0.687 0.44 0.9s0.68 0.32 1.16 0.32zM76.652 23v-14.4h2.56v14.4h-2.56zM86.687 23.24c-1.013 0-1.907-0.22-2.68-0.66s-1.387-1.053-1.84-1.84c-0.44-0.787-0.66-1.687-0.66-2.7s0.22-1.913 0.66-2.7c0.453-0.787 1.067-1.4 1.84-1.84s1.667-0.66 2.68-0.66c1.267 0 2.333 0.333 3.2 1 0.867 0.653 1.42 1.56 1.66 2.72h-2.7c-0.133-0.48-0.4-0.853-0.8-1.12-0.387-0.28-0.847-0.42-1.38-0.42-0.707 0-1.307 0.267-1.8 0.8s-0.74 1.273-0.74 2.22 0.247 1.687 0.74 2.22c0.493 0.533 1.093 0.8 1.8 0.8 0.533 0 0.993-0.133 1.38-0.4 0.4-0.267 0.667-0.647 0.8-1.14h2.7c-0.24 1.12-0.793 2.020-1.66 2.7s-1.933 1.020-3.2 1.020zM98.579 23.24c-0.96 0-1.827-0.22-2.6-0.66-0.76-0.44-1.367-1.047-1.82-1.82-0.44-0.787-0.66-1.693-0.66-2.72s0.227-1.927 0.68-2.7c0.453-0.787 1.060-1.4 1.82-1.84 0.773-0.44 1.64-0.66 2.6-0.66 0.947 0 1.8 0.22 2.561 0.66 0.773 0.44 1.38 1.053 1.82 1.84 0.453 0.773 0.68 1.673 0.68 2.7s-0.227 1.933-0.68 2.72c-0.44 0.773-1.047 1.38-1.82 1.82-0.774 0.44-1.634 0.66-2.581 0.66zM98.579 21.020c0.667 0 1.247-0.247 1.74-0.74 0.493-0.507 0.74-1.253 0.74-2.24s-0.247-1.727-0.74-2.22c-0.494-0.507-1.067-0.76-1.721-0.76-0.68 0-1.267 0.253-1.76 0.76-0.48 0.493-0.72 1.233-0.72 2.22s0.24 1.733 0.72 2.24c0.493 0.493 1.073 0.74 1.74 0.74z"></path>
</symbol>
<symbol id="icon-close" viewBox="0 0 32 32">
<path d="M8 7c-0.256 0-0.512 0.097-0.707 0.293-0.391 0.391-0.391 1.024 0 1.414l7.293 7.293-7.293 7.293c-0.391 0.39-0.391 1.024 0 1.414 0.196 0.195 0.451 0.293 0.707 0.293s0.512-0.097 0.707-0.293l7.293-7.293 7.293 7.293c0.39 0.39 1.024 0.39 1.414 0s0.39-1.024 0-1.414l-7.293-7.293 7.293-7.293c0.39-0.39 0.39-1.024 0-1.414s-1.024-0.391-1.414 0l-7.293 7.293-7.293-7.293c-0.195-0.196-0.451-0.293-0.707-0.293z"></path>
</symbol>
<symbol id="icon-search" viewBox="0 0 32 32">
<path d="M12.8 6.4c-3.535 0-6.4 2.865-6.4 6.4s2.865 6.4 6.4 6.4v0c3.535 0 6.4-2.865 6.4-6.4s-2.865-6.4-6.4-6.4v0zM3.2 12.8c0-0 0-0.001 0-0.001 0-5.302 4.298-9.6 9.6-9.6s9.6 4.298 9.6 9.6c0 2.086-0.665 4.017-1.796 5.592l0.020-0.029 7.707 7.707c0.278 0.287 0.449 0.68 0.449 1.112 0 0.884-0.716 1.6-1.6 1.6-0.432 0-0.824-0.171-1.112-0.45l-7.705-7.705c-1.546 1.111-3.477 1.776-5.563 1.776-5.302 0-9.6-4.298-9.6-9.6 0-0.001 0-0.001 0-0.002v0z"></path>
</symbol>
<symbol id="icon-hero-down" viewBox="0 0 32 32">
<path fill="#e7e8e3" style="fill: var(--color1, #e7e8e3)" d="M0 32v-10.667h10.667v-10.667h10.667v-10.667h10.667v32h-32z"></path>
</symbol>
<symbol id="icon-hero-up" viewBox="0 0 29 32">
<path fill="#E7E8E3" style="fill: var(--color1, #e7e8e3)" d="M0 31.915h9.796v-10.638h9.796v-10.638h9.796v-10.638h-29.388v31.915z"></path>
</symbol>
<symbol id="logo-1" viewBox="0 0 137 32">
<path fill="#737680" style="fill: var(--color1, #737680)" d="M33.041 7.733h3.165v15.413h-3.165v-15.413z"></path>
<path fill="#737680" style="fill: var(--color1, #737680)" d="M37.978 17.867c0-1.109 0.326-2.193 0.936-3.115s1.477-1.639 2.491-2.062c1.014-0.423 2.129-0.532 3.204-0.313s2.062 0.755 2.835 1.542c0.773 0.786 1.298 1.787 1.508 2.876s0.096 2.215-0.328 3.238c-0.424 1.023-1.139 1.895-2.054 2.507s-1.989 0.934-3.086 0.928c-0.727 0.006-1.449-0.136-2.121-0.415s-1.284-0.693-1.796-1.214c-0.513-0.521-0.918-1.142-1.191-1.823s-0.408-1.412-0.398-2.147zM45.911 17.867c-0.012-0.478-0.164-0.942-0.436-1.333s-0.652-0.693-1.092-0.867c-0.44-0.174-0.922-0.213-1.384-0.113s-0.885 0.338-1.215 0.68c-0.33 0.343-0.553 0.776-0.641 1.246s-0.037 0.956 0.147 1.396 0.492 0.817 0.886 1.081c0.394 0.265 0.856 0.406 1.33 0.406 0.322 0.006 0.642-0.055 0.94-0.179s0.567-0.309 0.791-0.544c0.224-0.234 0.397-0.513 0.51-0.818s0.161-0.631 0.144-0.956h0.021z"></path>
<path fill="#737680" style="fill: var(--color1, #737680)" d="M61.514 12.587v10.037c0 3.541-2.743 5.045-5.517 5.045-0.978 0.081-1.96-0.115-2.834-0.568s-1.606-1.142-2.113-1.992l2.669-1.557c0.216 0.441 0.56 0.805 0.986 1.043s0.913 0.34 1.398 0.291c0.309 0.038 0.622 0.007 0.917-0.091s0.565-0.261 0.791-0.477c0.226-0.216 0.401-0.48 0.515-0.773s0.161-0.607 0.14-0.921v-0.971c-0.368 0.451-0.836 0.81-1.365 1.047s-1.106 0.346-1.684 0.318c-1.399 0-2.74-0.562-3.73-1.562s-1.545-2.357-1.545-3.771 0.556-2.771 1.545-3.771c0.989-1 2.331-1.562 3.73-1.562 0.578-0.028 1.155 0.081 1.684 0.318s0.997 0.595 1.365 1.047v-1.067l3.049-0.064zM58.465 17.653c0.021-0.51-0.109-1.015-0.374-1.45s-0.653-0.779-1.113-0.99c-0.46-0.21-0.972-0.276-1.47-0.19s-0.959 0.321-1.324 0.675c-0.365 0.353-0.616 0.809-0.723 1.308s-0.063 1.019 0.125 1.493c0.188 0.474 0.512 0.88 0.931 1.167s0.912 0.44 1.417 0.44c0.33 0.024 0.661-0.022 0.972-0.135s0.595-0.291 0.833-0.523c0.239-0.231 0.426-0.51 0.552-0.82s0.185-0.642 0.175-0.976z"></path>
<path fill="#737680" style="fill: var(--color1, #737680)" d="M63.297 17.867c0-1.108 0.325-2.191 0.934-3.112s1.475-1.639 2.487-2.062c1.013-0.424 2.127-0.534 3.201-0.317s2.061 0.751 2.836 1.536c0.774 0.784 1.301 1.783 1.513 2.87s0.101 2.213-0.319 3.236-1.132 1.897-2.045 2.511c-0.912 0.614-1.984 0.941-3.080 0.939-0.729 0.007-1.452-0.133-2.126-0.412s-1.287-0.691-1.802-1.213-0.922-1.142-1.196-1.824c-0.275-0.683-0.412-1.414-0.403-2.151zM71.23 17.867c-0.012-0.479-0.164-0.943-0.436-1.334s-0.653-0.693-1.094-0.867c-0.441-0.174-0.923-0.213-1.386-0.111s-0.885 0.339-1.215 0.683c-0.33 0.344-0.552 0.778-0.638 1.249s-0.034 0.957 0.151 1.397c0.185 0.441 0.495 0.816 0.891 1.079s0.859 0.402 1.332 0.401c0.322 0.006 0.642-0.055 0.94-0.179s0.567-0.309 0.791-0.544 0.397-0.513 0.51-0.818c0.112-0.305 0.162-0.631 0.144-0.956h0.010z"></path>
<path fill="#737680" style="fill: var(--color1, #737680)" d="M75.819 9.76c0-0.376 0.11-0.743 0.316-1.055s0.5-0.556 0.843-0.699c0.343-0.144 0.721-0.181 1.085-0.108s0.699 0.254 0.961 0.52c0.263 0.266 0.442 0.604 0.514 0.972s0.035 0.75-0.107 1.097c-0.142 0.347-0.383 0.643-0.692 0.852s-0.672 0.32-1.043 0.32c-0.496-0.005-0.971-0.207-1.322-0.562s-0.55-0.835-0.556-1.336zM76.125 12.587h3.165v10.56h-3.165v-10.56z"></path>
<path fill="#737680" style="fill: var(--color1, #737680)" d="M92.835 17.867c0.035 0.702-0.067 1.405-0.301 2.067s-0.595 1.271-1.063 1.792c-0.468 0.52-1.032 0.942-1.662 1.241s-1.311 0.469-2.006 0.5c-0.59 0.040-1.18-0.056-1.728-0.279s-1.039-0.569-1.436-1.011v5.216h-3.165v-14.805h3.165v0.992c0.398-0.441 0.889-0.785 1.437-1.007s1.138-0.315 1.727-0.273c0.692 0.031 1.371 0.201 1.998 0.497s1.191 0.716 1.658 1.233c0.467 0.517 0.829 1.122 1.065 1.78s0.341 1.357 0.31 2.057zM89.67 17.867c-0.012-0.495-0.169-0.976-0.451-1.382s-0.675-0.718-1.132-0.899c-0.456-0.18-0.956-0.221-1.434-0.115s-0.917 0.351-1.258 0.706c-0.341 0.356-0.572 0.805-0.662 1.292s-0.035 0.99 0.156 1.446c0.192 0.456 0.512 0.845 0.922 1.117s0.889 0.417 1.379 0.415c0.336 0.014 0.671-0.043 0.983-0.169s0.594-0.317 0.829-0.56c0.234-0.244 0.415-0.535 0.53-0.854s0.162-0.659 0.138-0.998z"></path>
<path fill="#737680" style="fill: var(--color1, #737680)" d="M102.467 19.979c0 2.432-2.11 3.467-4.346 3.467-0.912 0.083-1.828-0.113-2.629-0.561s-1.451-1.13-1.865-1.956l2.722-1.557c0.108 0.381 0.342 0.712 0.662 0.939s0.709 0.336 1.1 0.309c0.749 0 1.129-0.235 1.129-0.661 0-1.163-5.138-0.544-5.138-4.203 0-2.304 1.92-3.456 4.093-3.456 0.826-0.037 1.647 0.152 2.375 0.548s1.336 0.984 1.761 1.702l-2.722 1.451c-0.12-0.275-0.317-0.509-0.566-0.674s-0.54-0.253-0.838-0.254c-0.549 0-0.876 0.213-0.876 0.587 0 1.216 5.138 0.416 5.138 4.32z"></path>
<path fill="#737680" style="fill: var(--color1, #737680)" d="M113.934 12.587v10.56h-3.165v-0.992c-0.36 0.439-0.817 0.787-1.332 1.015-0.517 0.228-1.079 0.33-1.642 0.297-2.11 0-3.914-1.525-3.914-4.373v-6.507h3.165v6.027c-0.025 0.252 0.004 0.506 0.087 0.746s0.214 0.458 0.387 0.64c0.174 0.183 0.385 0.325 0.618 0.417s0.483 0.132 0.733 0.117c1.139 0 1.941-0.683 1.941-2.133v-5.813h3.123z"></path>
<path fill="#737680" style="fill: var(--color1, #737680)" d="M131.869 16.661v6.485h-3.166v-6.208c0-1.067-0.495-1.728-1.497-1.728s-1.635 0.736-1.635 1.984v5.952h-3.165v-6.208c0-1.067-0.496-1.728-1.498-1.728s-1.635 0.736-1.635 1.984v5.952h-3.165v-10.56h3.165v0.971c0.328-0.429 0.755-0.768 1.246-0.988s1.026-0.313 1.56-0.271c0.535-0.028 1.070 0.085 1.549 0.328s0.887 0.608 1.184 1.059c0.349-0.471 0.808-0.845 1.338-1.088 0.528-0.242 1.111-0.345 1.689-0.299 2.469 0 4.031 1.728 4.031 4.363z"></path>
<path fill="#737680" style="fill: var(--color1, #737680)" d="M14.189 4.96v-4.533h-14.136v31.147h14.136v-4.533c-2.896 0-5.673-1.163-7.721-3.233s-3.198-4.878-3.198-7.806c0-2.928 1.15-5.736 3.198-7.806s4.825-3.234 7.721-3.234z"></path>
<path fill="#737680" style="fill: var(--color1, #737680)" d="M14.189 4.96v22.080c2.896 0 5.673-1.163 7.721-3.233s3.198-4.878 3.198-7.806-1.15-5.736-3.198-7.806c-2.048-2.070-4.825-3.234-7.721-3.234z"></path>
<path fill="#737680" style="fill: var(--color1, #737680)" d="M134.527 12.523c1.281 0 2.321-1.050 2.321-2.347s-1.040-2.347-2.321-2.347c-1.282 0-2.321 1.051-2.321 2.347s1.039 2.347 2.321 2.347z"></path>
</symbol>
<symbol id="logo-2" viewBox="0 0 137 32">
<path fill="#737680" style="fill: var(--color1, #737680)" d="M39.118 9.877h3.439v13.867h-3.439v-13.867zM43.929 18.528c0-3.435 2.143-5.493 5.357-5.493s5.357 2.059 5.357 5.493c0 3.435-2.068 5.515-5.357 5.515s-5.357-2.005-5.357-5.515zM51.236 18.528c0-1.888-0.739-2.997-1.918-2.997s-1.907 1.067-1.907 2.997 0.729 2.987 1.907 2.987c1.178 0 1.939-1.056 1.939-2.976l-0.021-0.011zM56.014 24.459h3.322c0.151 0.356 0.415 0.653 0.752 0.846s0.727 0.27 1.112 0.221c1.318 0 2.004-0.704 2.004-1.749v-1.92h0.011c-0.284 0.598-0.743 1.096-1.316 1.429s-1.235 0.486-1.898 0.437c-2.518 0-4.189-1.909-4.189-5.195s1.596-5.333 4.286-5.333c0.679-0.036 1.353 0.138 1.929 0.499s1.025 0.891 1.285 1.517h-0.096v-1.931h3.407v10.389c0 2.507-2.229 4.075-5.507 4.075-2.978-0.011-4.886-1.365-5.078-3.275l-0.022-0.011zM63.214 18.528c0-1.675-0.771-2.731-1.993-2.731s-1.971 1.067-1.971 2.731 0.739 2.645 1.971 2.645c1.232 0 1.993-0.907 1.993-2.645zM67.982 18.528c0-3.435 2.143-5.493 5.357-5.493s5.357 2.059 5.357 5.493c0 3.435-2.079 5.515-5.357 5.515s-5.336-2.005-5.336-5.515h-0.022zM75.289 18.528c0-1.888-0.75-2.997-1.918-2.997s-1.907 1.067-1.907 2.997 0.729 2.987 1.907 2.987c1.179 0 1.939-1.056 1.939-2.976l-0.022-0.011zM80.089 10.752c-0.015-0.349 0.075-0.694 0.259-0.991s0.453-0.533 0.772-0.677 0.675-0.189 1.021-0.131c0.346 0.059 0.666 0.219 0.919 0.461s0.428 0.553 0.502 0.894c0.074 0.341 0.044 0.697-0.087 1.021s-0.355 0.602-0.646 0.797c-0.29 0.196-0.633 0.301-0.984 0.301-0.224 0.006-0.447-0.033-0.656-0.114s-0.4-0.202-0.561-0.357c-0.162-0.155-0.29-0.34-0.379-0.545s-0.136-0.425-0.139-0.648l-0.021-0.011zM80.089 13.269h3.482v10.517h-3.429l-0.053-10.517zM96.096 18.528c0 3.424-1.543 5.408-4.168 5.408-0.672 0.041-1.341-0.124-1.915-0.473s-1.028-0.865-1.299-1.479h-0.064v5.184h-3.439v-13.867h3.418v1.877h0.064c0.261-0.626 0.71-1.156 1.285-1.519s1.249-0.54 1.929-0.508c2.7-0.021 4.254 1.952 4.254 5.387l-0.064-0.011zM92.593 18.528c0-1.664-0.782-2.741-1.993-2.741s-1.971 1.067-1.982 2.741c-0.011 1.675 0.771 2.731 1.982 2.731s2.057-0.992 2.057-2.72l-0.064-0.011zM101.968 13.024c2.882 0 4.671 1.355 4.693 3.531h-3.139c0-0.757-0.632-1.227-1.575-1.227s-1.393 0.363-1.393 0.907c0 0.544 0.396 0.715 1.189 0.875l2.207 0.448c2.143 0.448 3 1.301 3 2.891 0 2.133-1.982 3.584-4.929 3.584s-4.864-1.408-5.004-3.552h3.332c0.096 0.779 0.718 1.237 1.725 1.237s1.478-0.32 1.478-0.885-0.321-0.661-1.146-0.832l-1.993-0.416c-2.068-0.437-3.15-1.515-3.15-3.125 0.064-2.091 1.864-3.424 4.768-3.424l-0.064-0.011zM118.467 23.776h-3.331v-1.973h-0.064c-0.187 0.658-0.593 1.234-1.152 1.631s-1.237 0.593-1.923 0.556c-0.517 0.017-1.034-0.076-1.513-0.271s-0.912-0.49-1.269-0.863c-0.358-0.374-0.631-0.818-0.804-1.305s-0.24-1.004-0.197-1.518v-6.752h3.439v6.016c0 1.237 0.654 1.909 1.725 1.909 0.252-0.002 0.499-0.058 0.727-0.163s0.431-0.259 0.593-0.449c0.165-0.19 0.286-0.413 0.355-0.653 0.069-0.24 0.086-0.493 0.049-0.741v-5.92h3.429l-0.065 10.496zM120.129 13.269h3.343v2.027h0.074c0.184-0.649 0.581-1.219 1.126-1.621s1.208-0.612 1.886-0.598c0.68-0.059 1.358 0.137 1.901 0.549s0.911 1.011 1.034 1.68h0.151c0.214-0.672 0.645-1.255 1.226-1.658 0.581-0.403 1.28-0.604 1.987-0.571 0.471-0.018 0.939 0.063 1.376 0.239s0.831 0.44 1.158 0.777c0.327 0.337 0.578 0.74 0.737 1.18 0.161 0.441 0.225 0.91 0.19 1.377v7.136h-3.461v-6.261c0-1.067-0.504-1.664-1.479-1.664-0.216-0.004-0.431 0.040-0.629 0.126s-0.374 0.215-0.518 0.376c-0.143 0.161-0.25 0.351-0.314 0.557-0.062 0.206-0.079 0.423-0.050 0.636v6.229h-3.278v-6.293c0-1.067-0.526-1.632-1.469-1.632-0.218-0.002-0.434 0.043-0.634 0.131s-0.378 0.218-0.523 0.381c-0.145 0.163-0.253 0.354-0.318 0.562s-0.085 0.427-0.056 0.643v6.208h-3.44l-0.021-10.517z"></path>
<path fill="#737680" style="fill: var(--color1, #737680)" d="M32.314 10.784c0-2.123-0.644-4.197-1.847-5.949s-2.911-3.102-4.898-3.872c-1.987-0.77-4.162-0.925-6.239-0.444s-3.96 1.575-5.401 3.14h-13.371v28.096h28.232v-13.131c1.108-0.987 1.995-2.195 2.602-3.546s0.922-2.814 0.923-4.294zM26.882 10.784c0.002 1.017-0.299 2.012-0.865 2.859s-1.372 1.508-2.316 1.898c-0.943 0.391-1.982 0.494-2.985 0.297s-1.924-0.686-2.647-1.405c-0.723-0.719-1.216-1.635-1.416-2.632s-0.099-2.032 0.292-2.972 1.052-1.744 1.902-2.309c0.849-0.565 1.848-0.867 2.87-0.867 1.368 0 2.68 0.54 3.648 1.502s1.514 2.267 1.516 3.629zM23.357 26.347h-17.368v-17.28h5.293c-0.102 0.567-0.156 1.141-0.161 1.717 0.003 2.797 1.12 5.479 3.107 7.456s4.68 3.090 7.49 3.093c0.549-0.003 1.097-0.049 1.639-0.139v5.152z"></path>
</symbol>
<symbol id="logo-3" viewBox="0 0 137 32">
<path fill="#737680" style="fill: var(--color1, #737680)" d="M39.851 9.223h3.429v13.863h-3.429v-13.863zM44.64 17.851c0-3.429 2.103-5.474 5.349-5.474s5.349 2.046 5.349 5.474c0 3.429-2.057 5.486-5.349 5.486s-5.349-2-5.349-5.486zM51.897 17.851c0-1.886-0.743-2.994-1.909-2.994s-1.897 1.143-1.897 2.994c0 1.851 0.72 2.971 1.897 2.971s1.909-1.051 1.909-2.96v-0.011zM56.629 23.76h3.291c0.157 0.348 0.422 0.636 0.755 0.822s0.718 0.258 1.096 0.207c1.303 0 1.989-0.709 1.989-1.737v-1.92h-0.069c-0.273 0.588-0.716 1.081-1.273 1.416s-1.2 0.494-1.847 0.459c-2.503 0-4.16-1.909-4.16-5.189s1.577-5.349 4.206-5.349c0.668-0.026 1.328 0.152 1.892 0.512s1.004 0.883 1.262 1.5v-1.909h3.429v10.4c0 2.503-2.206 4.057-5.463 4.057-3.029 0-4.914-1.36-5.109-3.257v-0.011zM63.771 17.84c0-1.669-0.766-2.72-1.977-2.72s-1.954 1.040-1.954 2.72c0 1.68 0.731 2.629 1.954 2.629s1.977-0.926 1.977-2.617v-0.011zM68.491 17.84c0-3.429 2.103-5.474 5.349-5.474s5.36 2.046 5.36 5.474c0 3.429-2.057 5.486-5.36 5.486s-5.349-1.989-5.349-5.474v-0.011zM75.749 17.84c0-1.886-0.743-2.994-1.909-2.994s-1.84 1.154-1.84 3.017c0 1.863 0.72 2.971 1.886 2.971s1.863-1.063 1.863-2.971v-0.023zM80.503 10.080c-0.009-0.346 0.085-0.687 0.27-0.98s0.453-0.524 0.769-0.664 0.668-0.183 1.009-0.124c0.341 0.059 0.657 0.219 0.907 0.458s0.424 0.547 0.499 0.885 0.048 0.691-0.078 1.013c-0.126 0.323-0.344 0.601-0.628 0.799s-0.62 0.308-0.966 0.315c-0.23 0.016-0.46-0.016-0.676-0.094s-0.415-0.199-0.582-0.357c-0.167-0.158-0.3-0.348-0.391-0.56s-0.136-0.44-0.134-0.67v-0.023zM80.503 12.594h3.429v10.491h-3.429v-10.491zM96.377 17.84c0 3.429-1.52 5.383-4.126 5.383-0.668 0.043-1.333-0.12-1.906-0.468s-1.024-0.862-1.294-1.475h-0.069v5.166h-3.429v-13.874h3.429v1.874h0.069c0.258-0.623 0.701-1.151 1.269-1.513s1.235-0.54 1.908-0.51c2.629 0.046 4.194 2.011 4.194 5.44l-0.046-0.023zM92.949 17.84c0-1.669-0.766-2.731-1.966-2.731s-1.966 1.074-1.977 2.731c-0.011 1.657 0.777 2.72 1.977 2.72s1.966-1.040 1.966-2.697v-0.023zM102.263 12.354c2.846 0 4.571 1.349 4.651 3.509h-3.12c0-0.743-0.617-1.211-1.566-1.211s-1.371 0.366-1.371 0.903c0 0.537 0.377 0.709 1.143 0.869l2.194 0.446c2.091 0.446 2.983 1.291 2.983 2.88 0 2.171-1.977 3.566-4.891 3.566s-4.823-1.394-4.971-3.531h3.303c0.103 0.777 0.72 1.234 1.726 1.234s1.463-0.331 1.463-0.88c0-0.549-0.32-0.663-1.143-0.834l-1.977-0.423c-2.046-0.423-3.12-1.509-3.12-3.109 0.023-2.057 1.863-3.394 4.697-3.394v-0.023zM118.617 23.063h-3.303v-1.954h-0.069c-0.182 0.656-0.582 1.23-1.135 1.628s-1.225 0.593-1.905 0.555c-0.521 0.030-1.042-0.053-1.528-0.242s-0.926-0.48-1.29-0.854c-0.364-0.374-0.644-0.821-0.82-1.312s-0.245-1.014-0.202-1.534v-6.777h3.429v5.989c0 1.246 0.64 1.909 1.703 1.909 0.249 0 0.496-0.052 0.723-0.155s0.43-0.252 0.595-0.44c0.163-0.187 0.287-0.408 0.359-0.646s0.094-0.49 0.061-0.737v-5.92h3.429l-0.046 10.491zM120.274 12.571h3.314v2.023h0.069c0.182-0.647 0.574-1.216 1.113-1.617s1.198-0.612 1.87-0.6c0.685-0.055 1.363 0.15 1.904 0.573 0.539 0.424 0.901 1.035 1.010 1.712h0.069c0.207-0.685 0.637-1.281 1.221-1.695 0.583-0.414 1.288-0.622 2.002-0.591 0.466-0.016 0.93 0.067 1.362 0.242 0.433 0.175 0.823 0.44 1.146 0.776s0.573 0.737 0.731 1.176c0.158 0.439 0.223 0.906 0.189 1.371v7.143h-3.429v-6.229c0-1.143-0.514-1.669-1.474-1.669-0.214-0.002-0.426 0.042-0.622 0.129s-0.37 0.215-0.512 0.375c-0.142 0.16-0.248 0.349-0.311 0.554s-0.080 0.421-0.053 0.633v6.206h-3.257v-6.274c0-1.051-0.514-1.623-1.451-1.623-0.216 0-0.431 0.046-0.627 0.135-0.198 0.089-0.375 0.219-0.518 0.381-0.144 0.162-0.251 0.353-0.317 0.559-0.064 0.207-0.085 0.425-0.058 0.64v6.183h-3.429l0.057-10.514z"></path>
<path fill="#737680" style="fill: var(--color1, #737680)" d="M30.263 9.851c-0.582-1.33-1.351-2.569-2.286-3.68-1.381-1.691-3.105-3.070-5.058-4.047s-4.090-1.529-6.272-1.621c-2.181-0.091-4.358 0.28-6.385 1.091s-3.86 2.041-5.378 3.61-2.686 3.443-3.427 5.497c-0.742 2.054-1.040 4.241-0.875 6.418s0.789 4.295 1.831 6.213c1.042 1.919 2.479 3.595 4.215 4.918 1.114 0.866 2.346 1.57 3.657 2.091 1.839 0.754 3.807 1.142 5.794 1.143 4.102-0.009 8.033-1.644 10.932-4.547s4.528-6.836 4.531-10.939c0.003-2.116-0.433-4.21-1.28-6.149zM16.069 3.646c1.785-0 3.548 0.39 5.166 1.143-0.395 0.17-0.809 0.29-1.234 0.354-1.398 0.202-2.694 0.852-3.692 1.85s-1.648 2.294-1.85 3.692c-0.089 0.784-0.446 1.514-1.010 2.065s-1.302 0.892-2.087 0.963c-1.398 0.202-2.693 0.852-3.692 1.851s-1.648 2.294-1.85 3.692c-0.069 0.746-0.387 1.446-0.903 1.989-0.891-1.882-1.291-3.959-1.163-6.037s0.779-4.090 1.893-5.849c1.114-1.759 2.656-3.207 4.48-4.21s3.873-1.528 5.955-1.527l-0.011 0.023zM6.617 24c0.137-0.126 0.274-0.24 0.411-0.377 1.017-0.986 1.669-2.287 1.851-3.691 0.074-0.789 0.426-1.527 0.994-2.080 0.547-0.569 1.282-0.919 2.069-0.983 1.398-0.202 2.693-0.852 3.692-1.851s1.648-2.294 1.851-3.692c0.049-0.826 0.404-1.604 0.994-2.183 0.56-0.558 1.303-0.895 2.091-0.949 1.284-0.177 2.482-0.748 3.429-1.634 1.077 0.894 1.99 1.969 2.697 3.177-0.043 0.059-0.093 0.112-0.149 0.16-0.546 0.574-1.28 0.931-2.069 1.006-1.4 0.199-2.697 0.847-3.696 1.847s-1.648 2.297-1.846 3.696c-0.081 0.787-0.431 1.521-0.991 2.080s-1.296 0.905-2.083 0.983c-1.402 0.201-2.702 0.849-3.707 1.847s-1.661 2.295-1.87 3.696c-0.062 0.558-0.253 1.095-0.56 1.566-1.173-0.696-2.223-1.58-3.109-2.617zM16.069 28.411c-1.16 0.001-2.314-0.16-3.429-0.48 0.381-0.711 0.629-1.486 0.731-2.286 0.080-0.785 0.428-1.518 0.986-2.076s1.291-0.906 2.076-0.986c1.4-0.2 2.698-0.848 3.699-1.847s1.652-2.296 1.855-3.695c0.080-0.785 0.428-1.518 0.986-2.076s1.291-0.906 2.076-0.986c1.054-0.137 2.058-0.529 2.926-1.143 0.482 1.826 0.539 3.738 0.167 5.59s-1.163 3.593-2.313 5.092-2.627 2.713-4.32 3.552c-1.692 0.839-3.554 1.279-5.443 1.286v0.057z"></path>
</symbol>
<symbol id="logo-4" viewBox="0 0 154 32">
<path fill="#737680" style="fill: var(--color1, #737680)" d="M23.061 14.138c-0.428 0.436-0.756 0.962-0.96 1.54s-0.28 1.196-0.221 1.807l-0.020-0.020c0.060 0.72-0.036 1.444-0.281 2.123s-0.634 1.295-1.139 1.805c-0.505 0.511-1.114 0.904-1.784 1.152s-1.386 0.345-2.098 0.284l0.020 0.021c-0.851-0.080-1.705 0.107-2.447 0.537s-1.335 1.080-1.698 1.863c-0.363 0.783-0.479 1.66-0.331 2.512s0.551 1.637 1.156 2.248c0.605 0.611 1.381 1.019 2.223 1.167s1.709 0.031 2.482-0.338c0.773-0.368 1.416-0.969 1.839-1.72s0.608-1.616 0.528-2.477l0.021 0.021c-0.060-0.72 0.036-1.444 0.281-2.123s0.634-1.295 1.139-1.806c0.505-0.511 1.114-0.904 1.784-1.152s1.386-0.345 2.098-0.284l-0.021-0.021c0.695 0.063 1.395-0.052 2.034-0.335s1.198-0.725 1.623-1.285c0.426-0.56 0.705-1.219 0.812-1.917s0.038-1.412-0.201-2.075c-0.238-0.664-0.639-1.256-1.164-1.721s-1.157-0.789-1.839-0.942c-0.681-0.152-1.39-0.128-2.060 0.071s-1.279 0.565-1.772 1.065h-0.003z"></path>
<path fill="#737680" style="fill: var(--color1, #737680)" d="M14.73 20.156l-0.021-0.021c0.605 0.062 1.215-0.014 1.788-0.22s1.092-0.539 1.522-0.973c0.43-0.435 0.759-0.961 0.963-1.54s0.279-1.197 0.218-1.809l0.021 0.020c-0.060-0.72 0.036-1.444 0.281-2.123s0.634-1.294 1.139-1.805c0.505-0.511 1.114-0.904 1.784-1.152s1.386-0.345 2.098-0.284l-0.021-0.021c0.851 0.081 1.706-0.106 2.448-0.535s1.336-1.079 1.699-1.862c0.364-0.783 0.48-1.66 0.333-2.512s-0.55-1.637-1.155-2.249c-0.605-0.612-1.381-1.020-2.223-1.168s-1.709-0.031-2.482 0.337c-0.773 0.368-1.416 0.969-1.84 1.72s-0.608 1.616-0.528 2.477l-0.020-0.022c0.060 0.72-0.035 1.444-0.281 2.123s-0.634 1.295-1.138 1.806-1.114 0.904-1.784 1.152c-0.671 0.248-1.387 0.345-2.098 0.284l0.020 0.022c-0.605-0.062-1.215 0.013-1.788 0.22s-1.092 0.539-1.522 0.973c-0.43 0.435-0.759 0.96-0.963 1.54s-0.279 1.197-0.219 1.809l-0.020-0.021c0.060 0.72-0.036 1.444-0.281 2.122s-0.634 1.294-1.139 1.805-1.114 0.904-1.784 1.152c-0.67 0.248-1.386 0.345-2.098 0.285l0.020 0.021c-0.851-0.081-1.706 0.106-2.448 0.535s-1.336 1.079-1.699 1.862c-0.364 0.783-0.48 1.66-0.333 2.512s0.55 1.637 1.155 2.249c0.604 0.612 1.381 1.020 2.223 1.168s1.709 0.031 2.482-0.337 1.416-0.968 1.84-1.72c0.424-0.751 0.608-1.616 0.528-2.477l0.021 0.020c-0.060-0.72 0.036-1.444 0.281-2.123s0.634-1.294 1.139-1.805c0.505-0.511 1.114-0.904 1.784-1.152s1.386-0.345 2.098-0.284z"></path>
<path fill="#737680" style="fill: var(--color1, #737680)" d="M7.16 17.862c0.428-0.436 0.756-0.962 0.96-1.54s0.279-1.196 0.22-1.807l0.021 0.020c-0.060-0.72 0.036-1.445 0.281-2.123s0.634-1.295 1.139-1.806c0.505-0.511 1.114-0.904 1.785-1.152s1.387-0.345 2.098-0.284l-0.021-0.021c0.851 0.081 1.705-0.106 2.447-0.535s1.335-1.079 1.699-1.861c0.363-0.782 0.48-1.659 0.332-2.511s-0.55-1.637-1.154-2.248-1.38-1.019-2.222-1.168c-0.842-0.149-1.708-0.031-2.481 0.336s-1.416 0.968-1.839 1.719-0.608 1.615-0.529 2.476l-0.020-0.021c0.060 0.72-0.036 1.444-0.281 2.123s-0.634 1.295-1.139 1.805c-0.505 0.511-1.114 0.904-1.784 1.152s-1.386 0.345-2.098 0.284l0.020 0.021c-0.695-0.063-1.395 0.052-2.034 0.336s-1.197 0.725-1.623 1.285c-0.425 0.56-0.704 1.219-0.811 1.917s-0.037 1.412 0.201 2.075c0.239 0.664 0.639 1.256 1.164 1.721s1.157 0.789 1.839 0.941 1.39 0.128 2.060-0.071c0.67-0.199 1.279-0.565 1.771-1.065h-0.002z"></path>
<path fill="#737680" style="fill: var(--color1, #737680)" d="M42.146 6.463h3.354v16.518h-3.354v-16.518z"></path>
<path fill="#737680" style="fill: var(--color1, #737680)" d="M47.4 17.325c-0.005-1.187 0.339-2.349 0.987-3.338s1.572-1.762 2.654-2.219c1.083-0.457 2.275-0.58 3.426-0.351s2.209 0.798 3.040 1.636c0.831 0.838 1.398 1.906 1.629 3.070s0.115 2.371-0.333 3.468c-0.448 1.097-1.207 2.035-2.182 2.695s-2.122 1.012-3.295 1.012c-0.779 0.009-1.551-0.139-2.273-0.436s-1.377-0.736-1.929-1.292c-0.552-0.556-0.989-1.218-1.284-1.947s-0.446-1.51-0.44-2.298zM55.898 17.325c-0.014-0.512-0.177-1.008-0.468-1.426s-0.698-0.741-1.169-0.927c-0.471-0.186-0.986-0.227-1.481-0.119s-0.946 0.362-1.299 0.729c-0.352 0.367-0.591 0.831-0.684 1.334s-0.038 1.023 0.158 1.494c0.197 0.471 0.527 0.874 0.948 1.157s0.916 0.434 1.422 0.434c0.346 0.009 0.691-0.054 1.012-0.186s0.612-0.33 0.853-0.581c0.242-0.252 0.429-0.551 0.551-0.879s0.175-0.679 0.156-1.029z"></path>
<path fill="#737680" style="fill: var(--color1, #737680)" d="M72.621 11.667v10.743c0 3.801-2.93 5.408-5.903 5.408-1.047 0.079-2.095-0.135-3.030-0.619s-1.72-1.219-2.269-2.124l2.862-1.674c0.231 0.472 0.599 0.861 1.054 1.116s0.977 0.363 1.495 0.309c0.331 0.046 0.668 0.017 0.986-0.086s0.609-0.277 0.852-0.51c0.243-0.232 0.43-0.517 0.55-0.833s0.167-0.655 0.139-0.991v-1.034c-0.393 0.486-0.893 0.873-1.46 1.128s-1.185 0.373-1.805 0.343c-1.475-0.047-2.874-0.673-3.902-1.746s-1.601-2.507-1.601-4.001c0-1.494 0.574-2.928 1.601-4.001s2.426-1.699 3.902-1.746c0.62-0.030 1.238 0.087 1.805 0.343s1.067 0.642 1.46 1.128v-1.154l3.265 0.002zM69.357 17.097c0.023-0.547-0.117-1.088-0.401-1.554s-0.699-0.835-1.193-1.060c-0.493-0.225-1.042-0.296-1.575-0.203s-1.027 0.345-1.417 0.725c-0.39 0.379-0.659 0.868-0.773 1.403s-0.066 1.093 0.136 1.601c0.202 0.508 0.55 0.943 0.999 1.249s0.978 0.469 1.519 0.468c0.352 0.025 0.706-0.025 1.038-0.147s0.635-0.313 0.89-0.56c0.255-0.248 0.456-0.546 0.589-0.877s0.197-0.686 0.187-1.044z"></path>
<path fill="#737680" style="fill: var(--color1, #737680)" d="M74.521 17.325c-0.005-1.187 0.339-2.349 0.987-3.338s1.572-1.762 2.655-2.219c1.082-0.457 2.275-0.58 3.426-0.351s2.209 0.798 3.040 1.636c0.831 0.838 1.398 1.906 1.628 3.070s0.115 2.371-0.333 3.468c-0.448 1.097-1.207 2.035-2.182 2.695s-2.122 1.012-3.295 1.012c-0.779 0.009-1.551-0.139-2.273-0.436s-1.377-0.736-1.929-1.292-0.988-1.218-1.284-1.947c-0.296-0.729-0.446-1.51-0.44-2.298zM83.019 17.325c-0.014-0.512-0.177-1.008-0.468-1.426s-0.698-0.741-1.169-0.927c-0.471-0.186-0.986-0.227-1.481-0.119s-0.946 0.362-1.299 0.729c-0.353 0.367-0.591 0.831-0.684 1.334s-0.038 1.023 0.158 1.494c0.197 0.471 0.527 0.874 0.948 1.157s0.916 0.434 1.422 0.434c0.346 0.009 0.691-0.054 1.012-0.186s0.612-0.33 0.853-0.581c0.242-0.252 0.429-0.551 0.551-0.879s0.175-0.679 0.156-1.029z"></path>
<path fill="#737680" style="fill: var(--color1, #737680)" d="M87.937 8.635c0-0.403 0.118-0.797 0.339-1.131s0.536-0.596 0.903-0.75 0.772-0.194 1.163-0.116c0.39 0.079 0.749 0.273 1.030 0.557s0.473 0.648 0.551 1.043c0.078 0.395 0.038 0.805-0.115 1.177s-0.41 0.69-0.741 0.914c-0.331 0.224-0.72 0.343-1.118 0.343-0.532-0.005-1.041-0.222-1.417-0.602s-0.59-0.896-0.595-1.434zM88.276 11.667h3.356v11.314h-3.36l0.004-11.314z"></path>
<path fill="#737680" style="fill: var(--color1, #737680)" d="M106.115 17.325c0.039 0.748-0.069 1.496-0.317 2.201s-0.631 1.354-1.128 1.909c-0.497 0.555-1.097 1.005-1.766 1.325s-1.394 0.502-2.133 0.537c-0.622 0.034-1.243-0.072-1.819-0.311s-1.092-0.604-1.512-1.070v5.59h-3.354v-15.839h3.354v1.063c0.419-0.465 0.936-0.831 1.512-1.069s1.197-0.345 1.819-0.31c0.739 0.035 1.465 0.217 2.134 0.537s1.27 0.77 1.766 1.325c0.497 0.555 0.88 1.204 1.128 1.91s0.355 1.454 0.316 2.202zM102.761 17.325c-0.013-0.529-0.18-1.043-0.481-1.477s-0.72-0.768-1.208-0.962c-0.487-0.194-1.020-0.237-1.532-0.126s-0.98 0.373-1.345 0.752c-0.366 0.379-0.612 0.859-0.71 1.38s-0.041 1.058 0.163 1.546c0.204 0.488 0.544 0.905 0.981 1.198s0.948 0.449 1.472 0.449c0.359 0.016 0.718-0.045 1.053-0.179s0.637-0.338 0.888-0.599c0.251-0.26 0.445-0.572 0.569-0.914s0.175-0.706 0.15-1.069z"></path>
<path fill="#737680" style="fill: var(--color1, #737680)" d="M116.466 19.586c0 2.602-2.235 3.711-4.65 3.711-0.976 0.089-1.955-0.119-2.812-0.599s-1.552-1.209-1.996-2.093l2.906-1.674c0.118 0.409 0.37 0.764 0.715 1.007s0.763 0.359 1.182 0.328c0.804 0 1.207-0.249 1.207-0.701 0-1.246-5.501-0.589-5.501-4.503 0-2.467 2.058-3.711 4.383-3.711 0.874-0.028 1.739 0.182 2.506 0.608s1.407 1.052 1.853 1.813l-2.862 1.561c-0.125-0.296-0.334-0.549-0.601-0.726s-0.578-0.271-0.897-0.27c-0.582 0-0.94 0.229-0.94 0.633 0.004 1.29 5.505 0.43 5.505 4.616z"></path>
<path fill="#737680" style="fill: var(--color1, #737680)" d="M128.719 11.667v11.314h-3.355v-1.064c-0.387 0.47-0.879 0.839-1.434 1.079s-1.159 0.343-1.762 0.301c-2.259 0-4.179-1.629-4.179-4.686v-6.945h3.354v6.448c-0.028 0.269 0.002 0.542 0.089 0.798 0.086 0.256 0.227 0.491 0.412 0.687s0.41 0.348 0.66 0.447c0.248 0.099 0.516 0.142 0.784 0.125 1.23 0 2.079-0.723 2.079-2.33v-6.171l3.351-0.003z"></path>
<path fill="#737680" style="fill: var(--color1, #737680)" d="M147.953 16.034v6.946h-3.354v-6.653c0-1.131-0.536-1.855-1.61-1.855-1.117 0-1.745 0.792-1.745 2.127v6.381h-3.354v-6.653c0-1.131-0.536-1.855-1.61-1.855-1.117 0-1.743 0.792-1.743 2.127v6.381h-3.355v-11.314h3.355v1.040c0.348-0.461 0.804-0.827 1.327-1.064s1.097-0.338 1.669-0.292c0.573-0.028 1.144 0.094 1.659 0.356 0.512 0.262 0.95 0.653 1.27 1.137 0.371-0.506 0.864-0.908 1.431-1.169s1.19-0.372 1.811-0.323c2.566 0.001 4.248 1.856 4.248 4.685z"></path>
<path fill="#737680" style="fill: var(--color1, #737680)" d="M150.79 11.598c1.375 0 2.488-1.128 2.488-2.519s-1.114-2.519-2.488-2.519c-1.375 0-2.49 1.128-2.49 2.519s1.115 2.519 2.49 2.519z"></path>
</symbol>
<symbol id="logo-5" viewBox="0 0 160 32">
<path fill="#737680" style="fill: var(--color1, #737680)" d="M51.363 25.853c-0.806 0.043-1.604-0.183-2.264-0.64-0.276-0.201-0.498-0.465-0.647-0.769s-0.22-0.64-0.207-0.977v-12.36c-0.007-0.052-0.001-0.105 0.016-0.155s0.046-0.095 0.084-0.132c0.038-0.037 0.084-0.066 0.135-0.083s0.105-0.023 0.158-0.016h2.278c0.258 0 0.38 0.133 0.38 0.387v11.4c0 0.507 0.231 0.76 0.705 0.76 0.201 0.008 0.402-0.014 0.597-0.067 0.271 0 0.42 0.080 0.434 0.32l0.203 1.667c0.010 0.049 0.009 0.099-0.003 0.147s-0.034 0.093-0.064 0.133-0.070 0.071-0.114 0.095c-0.045 0.023-0.094 0.036-0.144 0.039-0.499 0.162-1.020 0.247-1.546 0.253z"></path>
<path fill="#737680" style="fill: var(--color1, #737680)" d="M64.176 24.427c-1.145 0.93-2.583 1.439-4.068 1.439s-2.923-0.509-4.068-1.439c-1.006-0.999-1.57-2.348-1.57-3.753s0.564-2.755 1.57-3.753c1.147-0.925 2.584-1.431 4.068-1.431s2.921 0.506 4.068 1.431c0.983 1.008 1.532 2.35 1.532 3.747s-0.549 2.739-1.532 3.747v0.013zM58.183 22.667c0.531 0.473 1.222 0.735 1.939 0.735s1.408-0.262 1.939-0.735c0.481-0.544 0.746-1.24 0.746-1.96s-0.265-1.417-0.746-1.96c-0.531-0.473-1.222-0.735-1.939-0.735s-1.408 0.262-1.939 0.735c-0.481 0.543-0.745 1.24-0.745 1.96s0.265 1.416 0.745 1.96z"></path>
<path fill="#737680" style="fill: var(--color1, #737680)" d="M78.251 15.827c0.258 0 0.38 0.133 0.38 0.387v9.56c0.024 0.645-0.099 1.288-0.359 1.88s-0.652 1.121-1.146 1.546c-1.096 0.919-2.506 1.396-3.946 1.333-1.3 0.045-2.583-0.304-3.675-1-0.466-0.301-0.864-0.693-1.17-1.152s-0.512-0.974-0.606-1.515c0-0.267 0-0.387 0.366-0.387h2.278c0.097 0.003 0.19 0.034 0.27 0.088s0.141 0.13 0.178 0.218c0.148 0.405 0.442 0.742 0.827 0.947 0.469 0.238 0.991 0.357 1.519 0.347 0.318 0.017 0.637-0.028 0.937-0.134s0.576-0.268 0.812-0.48c0.215-0.221 0.383-0.483 0.492-0.769s0.159-0.592 0.145-0.897v-0.84c-0.816 0.59-1.808 0.895-2.82 0.867-0.708 0.025-1.415-0.090-2.076-0.34s-1.265-0.628-1.775-1.113c-0.978-0.995-1.524-2.323-1.524-3.707s0.547-2.712 1.524-3.707c0.512-0.481 1.116-0.856 1.777-1.103s1.366-0.362 2.073-0.337c1.041-0.027 2.061 0.298 2.888 0.92v-0.213c-0.006-0.051-0.001-0.103 0.016-0.152s0.044-0.093 0.081-0.13c0.036-0.037 0.081-0.066 0.13-0.084s0.101-0.025 0.154-0.021l2.251-0.013zM72.99 23.453c0.349 0.011 0.697-0.054 1.018-0.19s0.608-0.339 0.84-0.596c0.451-0.572 0.695-1.276 0.695-2s-0.245-1.428-0.695-2c-0.231-0.253-0.516-0.454-0.835-0.588s-0.663-0.197-1.009-0.186c-0.353-0.011-0.705 0.054-1.030 0.19s-0.617 0.34-0.854 0.597c-0.499 0.548-0.762 1.265-0.732 2-0.025 0.728 0.232 1.438 0.719 1.987 0.238 0.257 0.53 0.46 0.855 0.596s0.677 0.201 1.030 0.191z"></path>
<path fill="#737680" style="fill: var(--color1, #737680)" d="M90.332 24.427c-1.147 0.925-2.584 1.431-4.068 1.431s-2.921-0.506-4.068-1.431c-0.984-1.010-1.533-2.355-1.533-3.753s0.549-2.743 1.533-3.753c1.148-0.923 2.585-1.427 4.068-1.427s2.92 0.504 4.068 1.427c0.983 1.008 1.532 2.35 1.532 3.747s-0.549 2.739-1.532 3.747v0.013zM84.325 22.667c0.26 0.243 0.566 0.433 0.901 0.559s0.692 0.185 1.051 0.174c0.356 0.009 0.711-0.051 1.044-0.177s0.637-0.315 0.895-0.557c0.473-0.547 0.733-1.242 0.733-1.96s-0.26-1.413-0.733-1.96c-0.258-0.242-0.563-0.431-0.895-0.557s-0.687-0.186-1.044-0.177c-0.359-0.011-0.716 0.048-1.051 0.174s-0.642 0.316-0.901 0.559c-0.473 0.547-0.733 1.242-0.733 1.96s0.26 1.413 0.733 1.96z"></path>
<path fill="#737680" style="fill: var(--color1, #737680)" d="M96.759 13.56c-0.358 0.309-0.819 0.479-1.295 0.479s-0.936-0.17-1.295-0.479c-0.162-0.151-0.292-0.333-0.38-0.534s-0.134-0.419-0.134-0.639 0.046-0.437 0.134-0.639c0.089-0.202 0.218-0.384 0.38-0.534 0.362-0.301 0.821-0.466 1.295-0.466s0.933 0.165 1.295 0.466c0.163 0.151 0.292 0.333 0.381 0.534s0.134 0.419 0.134 0.639c0 0.22-0.045 0.437-0.134 0.639s-0.218 0.384-0.381 0.534zM97.044 25.853c-0.806 0.039-1.602-0.186-2.264-0.64-0.272-0.204-0.49-0.469-0.636-0.773s-0.217-0.638-0.205-0.974v-7.253c-0.007-0.052-0.001-0.105 0.017-0.155s0.046-0.095 0.084-0.132 0.084-0.066 0.135-0.083c0.051-0.017 0.105-0.023 0.158-0.016h2.278c0.258 0 0.38 0.133 0.38 0.387v6.293c0 0.507 0.231 0.76 0.691 0.76 0.206 0.007 0.411-0.015 0.61-0.067 0.271 0 0.42 0.080 0.434 0.32l0.203 1.667c0.010 0.049 0.009 0.099-0.003 0.147s-0.033 0.093-0.064 0.133c-0.031 0.039-0.070 0.071-0.114 0.095s-0.094 0.037-0.144 0.039c-0.503 0.163-1.029 0.249-1.559 0.253z"></path>
<path fill="#737680" style="fill: var(--color1, #737680)" d="M107.308 15.507c0.711-0.028 1.421 0.086 2.088 0.333s1.275 0.624 1.79 1.107c0.959 1.012 1.492 2.344 1.492 3.727s-0.533 2.715-1.492 3.727c-0.513 0.487-1.121 0.868-1.787 1.117s-1.378 0.364-2.091 0.336c-1.015 0.022-2.010-0.282-2.834-0.867v4.813c0 0.253-0.136 0.373-0.393 0.373h-2.278c-0.052 0.010-0.105 0.007-0.156-0.009s-0.096-0.043-0.134-0.079-0.065-0.082-0.081-0.132c-0.016-0.050-0.019-0.102-0.009-0.153v-10.933c0.016-0.107 0.006-0.216-0.028-0.319s-0.093-0.196-0.171-0.272-0.173-0.134-0.277-0.168c-0.104-0.034-0.215-0.044-0.324-0.028h-0.447c-0.298 0-0.447-0.107-0.447-0.32v-1.573c-0.007-0.097 0.020-0.194 0.077-0.274s0.14-0.139 0.235-0.166c0.469-0.168 0.965-0.249 1.464-0.24 0.498-0.043 0.997 0.060 1.434 0.298s0.792 0.598 1.020 1.035c0.437-0.434 0.959-0.777 1.535-1.006s1.193-0.341 1.814-0.327zM105.193 22.667c0.242 0.249 0.532 0.446 0.854 0.581s0.668 0.205 1.017 0.205 0.696-0.070 1.017-0.205c0.322-0.135 0.612-0.333 0.854-0.581 0.509-0.559 0.777-1.29 0.746-2.040 0.035-0.75-0.233-1.484-0.746-2.040-0.242-0.248-0.532-0.446-0.854-0.581s-0.668-0.205-1.017-0.205-0.696 0.070-1.017 0.205c-0.322 0.135-0.612 0.333-0.854 0.581-0.493 0.566-0.75 1.295-0.719 2.040-0.027 0.744 0.229 1.472 0.719 2.040z"></path>
<path fill="#737680" style="fill: var(--color1, #737680)" d="M119.078 25.853c-1.217 0.049-2.424-0.237-3.485-0.827-0.426-0.252-0.788-0.595-1.060-1.004s-0.448-0.872-0.513-1.356c0-0.267 0.095-0.4 0.393-0.4h1.993c0.095 0.004 0.187 0.033 0.266 0.085s0.142 0.124 0.182 0.209c0.285 0.72 1.031 1.080 2.224 1.080 0.416 0.019 0.831-0.064 1.207-0.24 0.13-0.058 0.241-0.149 0.322-0.264s0.129-0.25 0.139-0.389c0-0.347-0.217-0.587-0.651-0.747-0.515-0.168-1.047-0.28-1.586-0.333-0.639-0.071-1.274-0.183-1.898-0.333-0.608-0.135-1.16-0.446-1.586-0.893-0.251-0.304-0.436-0.655-0.543-1.032s-0.134-0.772-0.079-1.159c0.055-0.388 0.19-0.76 0.397-1.094s0.482-0.623 0.808-0.848c0.977-0.612 2.124-0.91 3.281-0.853 1.12-0.037 2.229 0.235 3.2 0.787 0.391 0.218 0.728 0.519 0.986 0.881s0.431 0.776 0.505 1.212c0 0.267-0.122 0.4-0.366 0.4h-2.007c-0.085 0.005-0.169-0.015-0.241-0.058s-0.131-0.106-0.166-0.182c-0.134-0.316-0.387-0.569-0.705-0.707-0.359-0.185-0.761-0.277-1.166-0.267-0.398-0.021-0.794 0.057-1.153 0.227-0.126 0.048-0.235 0.132-0.313 0.241s-0.12 0.239-0.121 0.372c0.009 0.182 0.076 0.357 0.194 0.499s0.277 0.242 0.457 0.288c0.521 0.193 1.062 0.327 1.614 0.4 0.634 0.082 1.263 0.198 1.885 0.347 0.607 0.135 1.16 0.446 1.586 0.893 0.228 0.246 0.404 0.534 0.518 0.848s0.164 0.646 0.146 0.979c0.012 0.461-0.098 0.917-0.319 1.324s-0.545 0.75-0.942 0.996c-1.013 0.64-2.2 0.96-3.403 0.92z"></path>
<path fill="#737680" style="fill: var(--color1, #737680)" d="M138.075 25.187c0.008 0.047 0.005 0.096-0.005 0.142-0.012 0.047-0.033 0.090-0.063 0.129-0.028 0.038-0.065 0.071-0.107 0.095-0.043 0.024-0.088 0.040-0.137 0.047-0.495 0.159-1.012 0.244-1.532 0.253-0.516 0.053-1.036-0.027-1.511-0.23-0.476-0.203-0.889-0.523-1.201-0.93-0.958 0.81-2.196 1.225-3.458 1.16-0.586 0.027-1.171-0.068-1.717-0.277s-1.042-0.528-1.456-0.937c-0.411-0.428-0.729-0.933-0.937-1.486s-0.299-1.14-0.27-1.728v-5.213c0-0.253 0.122-0.387 0.38-0.387h2.278c0.258 0 0.38 0.133 0.38 0.387v4.813c-0.025 0.6 0.184 1.186 0.583 1.64 0.199 0.208 0.442 0.371 0.711 0.479s0.558 0.158 0.849 0.147c0.297 0.013 0.594-0.033 0.873-0.133s0.535-0.255 0.754-0.453c0.207-0.209 0.367-0.458 0.472-0.731s0.152-0.564 0.138-0.855v-4.907c0-0.253 0.122-0.387 0.379-0.387h2.305c0.259 0 0.38 0.133 0.38 0.387v6.28c0 0.52 0.231 0.773 0.679 0.773 0.209 0.008 0.42-0.015 0.623-0.067 0.052-0.014 0.105-0.017 0.157-0.007 0.053 0.009 0.103 0.030 0.145 0.061 0.044 0.031 0.079 0.071 0.103 0.117 0.027 0.046 0.040 0.097 0.043 0.15l0.163 1.667z"></path>
<path fill="#737680" style="fill: var(--color1, #737680)" d="M159.62 25.187c0.012 0.048 0.013 0.097 0.004 0.146-0.011 0.048-0.031 0.094-0.060 0.133-0.031 0.039-0.068 0.072-0.113 0.095-0.043 0.023-0.092 0.037-0.143 0.039-0.504 0.161-1.028 0.247-1.559 0.253-0.807 0.041-1.603-0.184-2.264-0.64-0.287-0.195-0.519-0.457-0.677-0.761s-0.239-0.643-0.232-0.985v-3.133c0.029-0.598-0.175-1.184-0.569-1.64-0.189-0.208-0.425-0.373-0.687-0.481-0.264-0.108-0.547-0.158-0.832-0.146-0.256-0.009-0.511 0.038-0.747 0.14-0.235 0.102-0.444 0.254-0.609 0.447-0.357 0.447-0.541 1.005-0.515 1.573v4.92c0 0.253-0.123 0.387-0.38 0.387h-2.292c-0.052 0.007-0.107 0.001-0.159-0.016-0.049-0.017-0.096-0.045-0.133-0.083-0.039-0.037-0.067-0.083-0.084-0.132-0.019-0.050-0.024-0.103-0.017-0.155v-4.813c0.031-0.591-0.159-1.173-0.528-1.64-0.165-0.196-0.373-0.354-0.608-0.462-0.233-0.108-0.489-0.165-0.748-0.165-0.277-0.011-0.552 0.036-0.809 0.137s-0.489 0.255-0.683 0.45c-0.388 0.433-0.587 0.997-0.556 1.573v4.92c0.007 0.052 0.001 0.105-0.016 0.155s-0.045 0.095-0.084 0.132c-0.037 0.037-0.084 0.066-0.136 0.083-0.049 0.017-0.104 0.023-0.157 0.016h-2.209c-0.257 0-0.38-0.133-0.38-0.387v-6.28c0.016-0.107 0.007-0.216-0.028-0.319s-0.093-0.196-0.171-0.272c-0.077-0.076-0.173-0.134-0.277-0.168s-0.216-0.044-0.324-0.028h-0.448c-0.297 0-0.447-0.107-0.447-0.32v-1.573c-0.007-0.097 0.020-0.194 0.077-0.274 0.056-0.080 0.14-0.139 0.235-0.166 0.469-0.168 0.965-0.249 1.464-0.24 0.479-0.040 0.96 0.054 1.387 0.271 0.428 0.217 0.783 0.548 1.027 0.956 0.457-0.426 1-0.755 1.592-0.966s1.223-0.3 1.852-0.26c0.612-0.029 1.22 0.083 1.779 0.329 0.557 0.246 1.051 0.617 1.435 1.084 0.449-0.48 1.001-0.855 1.616-1.1 0.613-0.244 1.276-0.352 1.937-0.314 0.591-0.027 1.183 0.067 1.736 0.275 0.552 0.209 1.056 0.528 1.477 0.938 0.412 0.427 0.731 0.933 0.939 1.485 0.207 0.552 0.299 1.141 0.268 1.729v2.573c0 0.507 0.231 0.76 0.664 0.76 0.211 0.010 0.421-0.013 0.624-0.067 0.281 0 0.431 0.107 0.448 0.32l0.121 1.667z"></path>
<path fill="#737680" style="fill: var(--color1, #737680)" d="M0.624 14.093c1-3.954 3.317-7.465 6.582-9.974s7.289-3.872 11.432-3.872c4.143 0 8.168 1.363 11.432 3.872s5.581 6.020 6.582 9.974h-1.627c-2.745-0.040-5.433 0.767-7.688 2.307-0.13 0.093-0.266 0.177-0.407 0.253h-0.19c-0.141-0.076-0.277-0.161-0.407-0.253-2.275-1.504-4.954-2.307-7.695-2.307s-5.42 0.803-7.695 2.307c-0.13 0.093-0.266 0.177-0.407 0.253h-0.19c-0.141-0.076-0.277-0.161-0.407-0.253-2.255-1.54-4.943-2.346-7.688-2.307h-1.627zM32.095 22.453c0.835-0.64 1.871-0.974 2.929-0.947h2.183v-4.28h-2.183c-1.864-0.022-3.685 0.548-5.193 1.627-0.848 0.615-1.875 0.947-2.929 0.947s-2.080-0.332-2.929-0.947c-1.546-1.058-3.384-1.625-5.268-1.625s-3.722 0.567-5.268 1.625c-0.848 0.615-1.875 0.947-2.929 0.947s-2.080-0.332-2.929-0.947c-1.526-1.092-3.374-1.663-5.261-1.627h-2.251v4.28h2.183c1.058-0.028 2.094 0.307 2.929 0.947 1.543 1.059 3.379 1.627 5.261 1.627s3.718-0.568 5.261-1.627c0.836-0.638 1.871-0.972 2.929-0.947 1.059-0.030 2.095 0.305 2.929 0.947 1.546 1.058 3.384 1.625 5.268 1.625s3.722-0.567 5.268-1.625zM32.095 30.107c0.835-0.64 1.871-0.974 2.929-0.947h2.183v-4.28h-2.183c-1.864-0.022-3.685 0.548-5.193 1.627-0.848 0.615-1.875 0.947-2.929 0.947s-2.080-0.332-2.929-0.947c-1.546-1.058-3.384-1.625-5.268-1.625s-3.722 0.567-5.268 1.625c-0.848 0.615-1.875 0.947-2.929 0.947s-2.080-0.332-2.929-0.947c-1.526-1.092-3.374-1.663-5.261-1.627h-2.251v4.28h2.183c1.058-0.028 2.094 0.307 2.929 0.947 1.543 1.059 3.379 1.627 5.261 1.627s3.718-0.568 5.261-1.627c0.836-0.638 1.871-0.972 2.929-0.947 1.059-0.030 2.095 0.305 2.929 0.947 1.546 1.058 3.384 1.625 5.268 1.625s3.722-0.567 5.268-1.625z"></path>
</symbol>
<symbol id="icon-houses-down" viewBox="0 0 32 32">
<path fill="#e7e8e3" style="fill: var(--color1, #e7e8e3)" d="M32 32v-10.667h-10.667v-10.667h-10.667v-10.667h-10.667v32h32z"></path>
</symbol>
<symbol id="icon-houses-up" viewBox="0 0 32 32">
<path fill="#e7e8e3" style="fill: var(--color1, #e7e8e3)" d="M0 0v10.667h10.667v10.667h10.667v10.667h10.667v-32h-32z"></path>
</symbol>
<symbol id="icon-star" viewBox="0 0 32 32">
  <path d="M14.513 1.031c0.55-1.375 2.423-1.375 2.973 0l3.246 8.116c0.232 0.58 0.756 0.976 1.358 1.026l8.426 0.702c1.428 0.119 2.006 1.972 0.919 2.941l-6.419 5.718c-0.459 0.408-0.659 1.049-0.519 1.66l1.961 8.55c0.332 1.449-1.183 2.594-2.405 1.817l-7.214-4.582c-0.515-0.327-1.163-0.327-1.678 0l-7.214 4.582c-1.222 0.776-2.738-0.369-2.405-1.817l1.961-8.55c0.14-0.61-0.060-1.252-0.519-1.66l-6.42-5.718c-1.088-0.969-0.509-2.822 0.919-2.941l8.426-0.702c0.602-0.050 1.126-0.446 1.358-1.026l3.246-8.116z"></path>
</symbol>

<!-- <symbol viewBox="0 0 32 32" id="icon-star"><path d="m12 16.102l-3.63 2.192q-.16.079-.297.064q-.136-.016-.265-.094q-.13-.08-.196-.226t-.012-.319l.966-4.11l-3.195-2.77q-.135-.11-.178-.263t.019-.293t.165-.23q.104-.087.28-.118l4.216-.368l1.644-3.892q.068-.165.196-.238T12 5.364t.288.073t.195.238l1.644 3.892l4.215.368q.177.03.281.119q.104.088.166.229q.061.14.018.293t-.178.263l-3.195 2.77l.966 4.11q.056.171-.011.318t-.197.226q-.128.08-.265.095q-.136.015-.296-.064z"></path></symbol> -->
</defs>
</svg>